<?xml version="1.0" encoding="UTF-8"?>
<svg version="1.1" xmlns="http://www.w3.org/2000/svg" width="47" height="38">
<path d="M0 0 C15.51 0 31.02 0 47 0 C47 12.54 47 25.08 47 38 C31.49 38 15.98 38 0 38 C0 25.46 0 12.92 0 0 Z " fill="#191726" transform="translate(0,0)"/>
<path d="M0 0 C15.51 0 31.02 0 47 0 C47 12.54 47 25.08 47 38 C31.49 38 15.98 38 0 38 C0 25.46 0 12.92 0 0 Z M3 3 C3 13.56 3 24.12 3 35 C5.64 35 8.28 35 11 35 C12.31262571 33.91447634 12.31262571 33.91447634 12.09765625 31.27734375 C12.08605469 30.17519531 12.07445312 29.07304687 12.0625 27.9375 C12.05347656 26.83277344 12.04445313 25.72804688 12.03515625 24.58984375 C12.02355469 23.73519531 12.01195312 22.88054688 12 22 C12.9075 22.0825 13.815 22.165 14.75 22.25 C18.5558843 22.31183753 18.5558843 22.31183753 22 18 C22.495 26.415 22.495 26.415 23 35 C25.64 35 28.28 35 31 35 C32.25949049 33.96593327 32.25949049 33.96593327 32.09765625 31.71484375 C32.08605469 30.79832031 32.07445313 29.88179687 32.0625 28.9375 C32.05347656 28.01839844 32.04445313 27.09929688 32.03515625 26.15234375 C32.02355469 25.44207031 32.01195313 24.73179688 32 24 C32.99 24 33.98 24 35 24 C35 27.63 35 31.26 35 35 C39.00254456 35.09181134 39.00254456 35.09181134 43 35 C44.88319268 33.11680732 44.13054285 29.88069863 44.1328125 27.375 C44.13376923 26.71290527 44.13472595 26.05081055 44.13571167 25.36865234 C44.13639326 23.96647039 44.13454042 22.5642853 44.13037109 21.16210938 C44.12502246 19.00904287 44.1303167 16.85618498 44.13671875 14.703125 C44.13605796 13.34374954 44.13477679 11.9843742 44.1328125 10.625 C44.13112061 8.75714844 44.13112061 8.75714844 44.12939453 6.8515625 C44.32572127 4.10094569 44.32572127 4.10094569 43 3 C40.32941149 2.85884839 37.67567762 2.95752893 35 3 C35 6.96 35 10.92 35 15 C34.01 15 33.02 15 32 15 C32.01160156 14.21753906 32.02320312 13.43507813 32.03515625 12.62890625 C32.04417969 11.61699219 32.05320312 10.60507813 32.0625 9.5625 C32.07990234 8.04849609 32.07990234 8.04849609 32.09765625 6.50390625 C32.28612676 4.05978933 32.28612676 4.05978933 31 3 C28.32941149 2.85884839 25.67567762 2.95752893 23 3 C22.67 4.65 22.34 6.3 22 8 C21.46375 7.175 20.9275 6.35 20.375 5.5 C15.82504562 1.61113572 15.82504562 1.61113572 3 3 Z " fill="#C4C4C4" transform="translate(0,0)"/>
<path d="M0 0 C1.65 0 3.3 0 5 0 C5 3.96 5 7.92 5 12 C7.31 12 9.62 12 12 12 C12 8.04 12 4.08 12 0 C13.65 0 15.3 0 17 0 C17 9.9 17 19.8 17 30 C15.35 30 13.7 30 12 30 C12 25.71 12 21.42 12 17 C9.69 17 7.38 17 5 17 C5 21.29 5 25.58 5 30 C3.35 30 1.7 30 0 30 C0 20.1 0 10.2 0 0 Z " fill="#D7A165" transform="translate(24,4)"/>
<path d="M0 0 C3.96 0 7.92 0 12 0 C16 4 16 4 16.5 7.5 C16 11 16 11 14.4375 13.4375 C12 15 12 15 5 15 C5 19.95 5 24.9 5 30 C3.35 30 1.7 30 0 30 C0 20.1 0 10.2 0 0 Z " fill="#C5925E" transform="translate(4,4)"/>
<path d="M0 0 C0.66 0.33 1.32 0.66 2 1 C2.60552093 8.14514693 2.60552093 8.14514693 -0.125 12 C-3 14 -3 14 -9 14 C-9 17.96 -9 21.92 -9 26 C-9.66 26.33 -10.32 26.66 -11 27 C-11 22.05 -11 17.1 -11 12 C-7.535 11.505 -7.535 11.505 -4 11 C-1.98048938 10.06402685 -1.98048938 10.06402685 -1 8 C-0.46476861 5.31854373 -0.2242729 2.73612933 0 0 Z " fill="#000000" transform="translate(21,8)"/>
<path d="M0 0 C1.65 0 3.3 0 5 0 C5.3125 3.25 5.3125 3.25 5 7 C2.5 9.4375 2.5 9.4375 0 11 C0 7.37 0 3.74 0 0 Z " fill="#D9A066" transform="translate(24,4)"/>
<path d="M0 0 C0 2.97 0 5.94 0 9 C-1.65 9 -3.3 9 -5 9 C-5.25 6.75 -5.25 6.75 -5 4 C-1.64864865 0 -1.64864865 0 0 0 Z " fill="#E5E0BA" transform="translate(9,25)"/>
<path d="M0 0 C1.65 0 3.3 0 5 0 C5 0.66 5 1.32 5 2 C4.01 2 3.02 2 2 2 C2 5.3 2 8.6 2 12 C1.01 12.495 1.01 12.495 0 13 C0 8.71 0 4.42 0 0 Z " fill="#000000" transform="translate(30,22)"/>
<path d="M0 0 C0.33 1.32 0.66 2.64 1 4 C-0.65 5.32 -2.3 6.64 -4 8 C-3.50168276 4.31245243 -2.89932357 2.39509338 0 0 Z " fill="#FFFFFF" transform="translate(28,7)"/>
<path d="M0 0 C1.32 0 2.64 0 4 0 C4.66 1.32 5.32 2.64 6 4 C5.01 4.66 4.02 5.32 3 6 C3 4.35 3 2.7 3 1 C2.34 1 1.68 1 1 1 C1.33 2.98 1.66 4.96 2 7 C1.34 7 0.68 7 0 7 C0 4.69 0 2.38 0 0 Z " fill="#85848F" transform="translate(9,8)"/>
</svg>
